<?xml version="1.0" encoding="UTF-8"?>
<svg version="1.1" xmlns="http://www.w3.org/2000/svg" width="658" height="658">
<path d="M0 0 C1.05655289 -0.00974854 2.11310577 -0.01949707 3.20167542 -0.02954102 C26.39183568 -0.19943308 48.88047169 0.02917938 71.73828125 4.23828125 C72.7864502 4.4202002 73.83461914 4.60211914 74.91455078 4.78955078 C129.35695014 14.35780033 179.72218541 38.94092792 222.73828125 73.23828125 C223.57045166 73.89256104 223.57045166 73.89256104 224.41943359 74.56005859 C233.57158027 81.81222301 241.78288365 90.07739142 250.05078125 98.30078125 C250.6109494 98.85559174 251.17111755 99.41040222 251.7482605 99.98202515 C258.88045679 107.06247162 265.55195205 114.2981461 271.73828125 122.23828125 C272.68175415 123.43916382 272.68175415 123.43916382 273.64428711 124.66430664 C315.13722654 177.99973458 343.45276025 246.20196795 343.9765625 314.5 C343.98631104 315.55655289 343.99605957 316.61310577 344.00610352 317.70167542 C344.17599558 340.89183568 343.94738312 363.38047169 339.73828125 386.23828125 C339.5563623 387.2864502 339.37444336 388.33461914 339.18701172 389.41455078 C329.61876217 443.85695014 305.03563458 494.22218541 270.73828125 537.23828125 C270.08400146 538.07045166 270.08400146 538.07045166 269.41650391 538.91943359 C262.16433949 548.07158027 253.89917108 556.28288365 245.67578125 564.55078125 C245.12097076 565.1109494 244.56616028 565.67111755 243.99453735 566.2482605 C236.91409088 573.38045679 229.6784164 580.05195205 221.73828125 586.23828125 C220.93769287 586.86726318 220.13710449 587.49624512 219.31225586 588.14428711 C165.97682792 629.63722654 97.77459455 657.95276025 29.4765625 658.4765625 C28.42000961 658.48631104 27.36345673 658.49605957 26.27488708 658.50610352 C3.08472682 658.67599558 -19.40390919 658.44738312 -42.26171875 654.23828125 C-43.3098877 654.0563623 -44.35805664 653.87444336 -45.43798828 653.68701172 C-99.88038764 644.11876217 -150.24562291 619.53563458 -193.26171875 585.23828125 C-194.09388916 584.58400146 -194.09388916 584.58400146 -194.94287109 583.91650391 C-204.09501777 576.66433949 -212.30632115 568.39917108 -220.57421875 560.17578125 C-221.1343869 559.62097076 -221.69455505 559.06616028 -222.271698 558.49453735 C-229.40389429 551.41409088 -236.07538955 544.1784164 -242.26171875 536.23828125 C-242.89070068 535.43769287 -243.51968262 534.63710449 -244.16772461 533.81225586 C-285.66066404 480.47682792 -313.97619775 412.27459455 -314.5 343.9765625 C-314.50974854 342.92000961 -314.51949707 341.86345673 -314.52954102 340.77488708 C-314.69943308 317.58472682 -314.47082062 295.09609081 -310.26171875 272.23828125 C-310.0797998 271.1901123 -309.89788086 270.14194336 -309.71044922 269.06201172 C-300.14219967 214.61961236 -275.55907208 164.25437709 -241.26171875 121.23828125 C-240.82553223 120.68350098 -240.3893457 120.1287207 -239.93994141 119.55712891 C-232.68777699 110.40498223 -224.42260858 102.19367885 -216.19921875 93.92578125 C-215.64440826 93.3656131 -215.08959778 92.80544495 -214.51797485 92.228302 C-207.43752838 85.09610571 -200.2018539 78.42461045 -192.26171875 72.23828125 C-191.46113037 71.60929932 -190.66054199 70.98031738 -189.83569336 70.33227539 C-136.50026542 28.83933596 -68.29803205 0.52380225 0 0 Z " fill="#000000" transform="translate(314.26171875,-0.23828125)"/>
<path d="M0 0 C0.97622314 -0.03432129 1.95244629 -0.06864258 2.95825195 -0.10400391 C7.25130376 -0.13084746 10.38796322 -0.09368927 13.828125 2.6484375 C16.21569817 5.20042439 18.47639167 7.74462801 20.625 10.5 C23.97008663 14.685589 27.42339562 18.69758191 31.0625 22.625 C31.53461914 23.13506592 32.00673828 23.64513184 32.49316406 24.1706543 C32.95303711 24.66734619 33.41291016 25.16403809 33.88671875 25.67578125 C38.08848409 30.22501264 42.13192513 34.90117084 46.14453125 39.6171875 C51.04875839 45.37428889 55.9768296 51.08389504 61.125 56.625 C65.32457 61.14601122 69.24783255 65.83904204 73.1171875 70.64453125 C76.55874432 74.78714594 80.21854768 78.71545632 83.87890625 82.6640625 C86.51637157 85.52299438 89.0778768 88.43601169 91.625 91.375 C93.88468506 93.94636576 96.19187265 96.472051 98.5 99 C109.4375 111.02290076 109.4375 111.02290076 109.4375 113.4375 C110.53964844 113.06238281 111.64179688 112.68726563 112.77734375 112.30078125 C114.30983777 111.78368204 115.84239331 111.26676516 117.375 110.75 C118.44911133 110.38358398 118.44911133 110.38358398 119.54492188 110.00976562 C126.24377413 107.75781104 133.01735153 105.77614381 139.80004883 103.79614258 C144.50614368 102.42117077 149.20314245 101.01682264 153.8984375 99.60546875 C154.69965027 99.36472626 155.50086304 99.12398376 156.32635498 98.87594604 C157.97549501 98.38025421 159.62459323 97.88442327 161.27365112 97.38845825 C179.67004855 91.85647029 198.07844143 86.36657648 216.5078125 80.9453125 C217.6537085 80.60814209 217.6537085 80.60814209 218.82275391 80.26416016 C220.23082158 79.85080277 221.63932281 79.4389182 223.04833984 79.02880859 C225.84789968 78.21235929 228.63378857 77.37344794 231.40625 76.46875 C237.49504233 74.48805852 242.89311147 72.83379261 248.96435547 75.58081055 C249.90166504 76.07363525 250.83897461 76.56645996 251.8046875 77.07421875 C258.05068241 80.2768434 264.40544841 83.15749296 270.82626343 85.99005127 C279.64924705 89.88877741 288.47006816 93.80100783 297.125 98.0625 C297.75889648 98.36849121 298.39279297 98.67448242 299.04589844 98.98974609 C302.15824068 100.5530028 303.45038843 101.45683265 305.4375 104.4375 C305.8125 106.875 305.8125 106.875 305.4375 109.4375 C302.67399448 112.77721569 300.40826128 114.07225111 296.24609375 115.1484375 C295.22870117 115.42051025 294.21130859 115.69258301 293.16308594 115.97290039 C292.07801758 116.24996826 290.99294922 116.52703613 289.875 116.8125 C287.59696598 117.42059708 285.31962566 118.03129852 283.04296875 118.64453125 C281.91810059 118.94568848 280.79323242 119.2468457 279.63427734 119.55712891 C275.27959028 120.75638059 270.98291617 122.10549245 266.6875 123.5 C259.82100305 125.70894894 252.92864838 127.80643121 246 129.8125 C245.10506836 130.07554932 244.21013672 130.33859863 243.28808594 130.60961914 C242.45180664 130.8493042 241.61552734 131.08898926 240.75390625 131.3359375 C240.01599854 131.54911621 239.27809082 131.76229492 238.51782227 131.98193359 C236.4375 132.4375 236.4375 132.4375 232.4375 132.4375 C232.18552856 133.40671387 232.18552856 133.40671387 231.9284668 134.39550781 C229.97260749 141.75797252 227.68370105 148.97044437 225.25 156.1875 C224.65626587 157.95903442 224.65626587 157.95903442 224.05053711 159.76635742 C221.27353958 168.02635826 218.44175567 176.26641533 215.53295898 184.48095703 C213.80200376 189.39763823 212.13974625 194.32806889 210.57524109 199.2999115 C209.71053479 202.04713113 208.83225883 204.78995909 207.95455933 207.53305054 C207.53102749 208.87176866 207.11461867 210.21276399 206.70584106 211.55606079 C202.63753719 224.91633802 202.63753719 224.91633802 196.4375 228.4375 C195.55239746 228.99663086 194.66729492 229.55576172 193.75537109 230.13183594 C191.02398312 231.84200423 188.27310304 233.51312886 185.50595093 235.16464233 C183.00802216 236.65555204 180.51682522 238.15755087 178.02519226 239.65895081 C176.73541128 240.43605806 175.44529836 241.21261465 174.15486145 241.9886322 C167.78360046 245.82229779 161.45200445 249.71870832 155.125 253.625 C146.9744276 258.65181184 138.80988228 263.65424711 130.625 268.625 C122.50831835 273.55494244 114.42210691 278.53133047 106.35473633 283.54150391 C98.90951952 288.15968013 91.42264973 292.70760214 83.92895508 297.24658203 C76.61790183 301.68711057 69.37958671 306.23479258 62.19873047 310.88305664 C61.4667041 311.35219482 60.73467773 311.82133301 59.98046875 312.3046875 C59.34133545 312.71831543 58.70220215 313.13194336 58.04370117 313.55810547 C56.4375 314.4375 56.4375 314.4375 54.4375 314.4375 C54.40011719 315.118125 54.36273438 315.79875 54.32421875 316.5 C53.87963159 323.05548126 52.94831202 329.36658283 51.66479492 335.80859375 C50.35997306 342.50881878 49.45922135 349.2486872 48.61572266 356.02099609 C47.92020649 361.43586869 47.02023905 366.78817892 45.98828125 372.1484375 C44.5935066 379.4070998 43.45445988 386.68495499 42.41717529 394.00411987 C41.89764971 397.66418686 41.36521861 401.32237048 40.83203125 404.98046875 C40.72068848 405.74462601 40.6093457 406.50878326 40.49462891 407.2960968 C39.1704382 416.33331045 37.74523511 425.35446085 36.3125 434.375 C36.19039154 435.14394592 36.06828308 435.91289185 35.94247437 436.70513916 C34.95546679 442.91601612 34.95546679 442.91601612 34.51368713 445.66253662 C33.87272724 449.65479008 33.25388212 453.64920716 32.66113281 457.64892578 C32.53102814 458.51191788 32.40092346 459.37490997 32.26687622 460.26405334 C32.01693957 461.92504478 31.77225457 463.58683777 31.53366089 465.24949646 C30.42217772 472.56824073 30.42217772 472.56824073 28.4375 475.4375 C25.19952444 477.59615037 24.19385331 477.94633163 20.4375 477.4375 C18.63330078 475.98193359 18.63330078 475.98193359 17.0078125 473.9609375 C16.41129883 473.22713867 15.81478516 472.49333984 15.20019531 471.73730469 C12.50573032 468.22181158 9.87215683 464.67748579 7.3125 461.0625 C6.17325248 459.46999814 5.03392739 457.87755178 3.89453125 456.28515625 C3.32041504 455.47965332 2.74629883 454.67415039 2.15478516 453.84423828 C-0.55020954 450.05324629 -3.27395325 446.27587007 -6 442.5 C-6.79978271 441.39132568 -6.79978271 441.39132568 -7.61572266 440.26025391 C-12.14615548 433.99037368 -16.73465839 427.76427559 -21.33178711 421.54321289 C-25.81413533 415.47089496 -30.24050823 409.36004684 -34.64819336 403.23339844 C-39.34308154 396.71722361 -44.10624254 390.2524935 -48.89453125 383.8046875 C-50.46076274 381.68954311 -52.01516984 379.56649751 -53.5625 377.4375 C-53.98265381 376.86813721 -54.40280762 376.29877441 -54.83569336 375.7121582 C-58.99004777 369.86034544 -58.11563994 364.80412149 -56.98876953 357.94555664 C-56.74719583 356.62087576 -56.50340702 355.29659757 -56.2578125 353.97265625 C-54.34625018 343.402764 -52.67568499 332.79687714 -51 322.1875 C-50.6934875 320.25518801 -50.38684739 318.32289625 -50.08007812 316.390625 C-48.88336067 308.8447441 -47.68920737 301.29863777 -46.53515625 293.74609375 C-45.38351812 286.22352271 -44.1732778 278.71050759 -42.95800781 271.19799805 C-42.6934902 269.56076467 -42.42982365 267.92339358 -42.16699219 266.28588867 C-39.69344084 250.87529549 -39.69344084 250.87529549 -38.53515625 245.38671875 C-36.82992004 237.19294415 -35.83663293 228.84930043 -34.66430664 220.56542969 C-34.34027664 218.28278153 -34.01211726 216.00075506 -33.68359375 213.71875 C-33.5366935 212.66572693 -33.5366935 212.66572693 -33.38682556 211.59143066 C-32.67553453 206.66356907 -32.67553453 206.66356907 -31.5625 204.4375 C-30.8118851 200.9259277 -30.7166754 197.94014789 -31.5625 194.4375 C-34.37070854 191.10316339 -38.0023642 188.91411621 -41.5625 186.4375 C-44.17957359 184.37420031 -46.74315474 182.2472613 -49.3125 180.125 C-54.41330827 175.96143 -59.55492622 171.8576587 -64.75 167.8125 C-69.94886539 163.76173274 -75.00334915 159.56837271 -80.01367188 155.28735352 C-83.73675851 152.11322754 -87.53295244 149.06722963 -91.4140625 146.08984375 C-96.77433837 141.96730431 -102.01991055 137.69732849 -107.26171875 133.42578125 C-108.61196685 132.32550572 -109.96222761 131.22524572 -111.3125 130.125 C-111.99812012 129.56619141 -112.68374023 129.00738281 -113.39013672 128.43164062 C-117.80532456 124.84151837 -122.26008094 121.30851568 -126.75 117.8125 C-131.30015121 114.26786098 -135.7447195 110.62736351 -140.125 106.875 C-144.76981578 102.89682395 -149.52387579 99.11701038 -154.39990234 95.42211914 C-160.61887921 90.68221515 -166.6111282 85.66977982 -172.6328125 80.68359375 C-176.36366882 77.59510736 -180.13375332 74.5598955 -183.92578125 71.546875 C-186.7106363 69.31899096 -189.47595116 67.06830754 -192.23999023 64.81469727 C-197.9757107 60.13841957 -203.73042031 55.49318452 -209.5625 50.9375 C-216.69559492 45.35734782 -223.76394957 39.70221651 -230.74414062 33.93164062 C-232.41601167 32.55786904 -234.10452183 31.20773668 -235.796875 29.859375 C-242.33933378 24.42580754 -242.33933378 24.42580754 -243.4375 19.5625 C-242.5625 16.4375 -242.5625 16.4375 -241.09838867 14.80834961 C-237.23947409 12.72229922 -233.44404862 12.67132852 -229.11328125 12.37890625 C-228.11895584 12.30241348 -227.12463043 12.22592072 -226.10017395 12.14710999 C-211.14720605 11.04385858 -196.16738314 10.29045383 -181.19512939 9.50421143 C-177.94614751 9.33252089 -174.69740483 9.15652674 -171.44865513 8.98050594 C-155.62069687 8.12415265 -139.79542792 7.29151984 -123.951828 6.77671814 C-117.19728115 6.54720784 -110.48312207 6.08007064 -103.75 5.5 C-90.65321205 4.4121261 -77.54718472 3.85969606 -64.41845703 3.31478882 C-52.18041347 2.80592546 -39.96773969 2.17918861 -27.75 1.3125 C-18.50354463 0.68872636 -9.26715576 0.16592811 0 0 Z " fill="#F5F5F5" transform="translate(310.5625,153.5625)"/>
<path d="M0 0 C5.25693193 4.291373 9.63408439 8.82010013 14 14 C15.9547487 16.29473611 17.91469214 18.58501235 19.875 20.875 C20.65206299 21.78403076 20.65206299 21.78403076 21.44482422 22.71142578 C25.22701449 27.12615272 29.08223254 31.46766746 32.98828125 35.7734375 C34.84734669 37.83104391 36.67928358 39.90846763 38.5 42 C41.13689636 45.02754767 43.81016569 48.01937279 46.5 51 C51.33227276 56.36016811 56.09818856 61.77009574 60.78515625 67.2578125 C61.28845459 67.84691406 61.79175293 68.43601562 62.31030273 69.04296875 C63.35077533 70.26120972 64.39065494 71.47995741 65.42993164 72.69921875 C69.33647252 77.26743577 73.3504488 81.71572886 77.453125 86.109375 C79 88 79 88 79 90 C79.66 90 80.32 90 81 90 C82.35097374 91.51151546 83.62927345 93.08813313 84.875 94.6875 C88.42451874 99.13295836 92.10555228 103.35499607 96 107.5 C99.63011959 111.37409911 103.11753742 115.28906969 106.4375 119.4375 C110.46511129 124.45922225 114.79345856 129.12582761 119.20288086 133.80834961 C123.22358045 138.10144 126.95004394 142.56255492 130.625 147.15625 C133.99459705 151.19089911 137.60249644 154.98514189 141.20532227 158.81079102 C144.42784161 162.25143567 147.49508793 165.74989605 150.4375 169.4375 C154.73473043 174.81303175 159.39203484 179.80064019 164.12866211 184.78686523 C170.97256993 192.00836797 170.97256993 192.00836797 173 195 C171.79559106 198.61322681 170.9796605 198.90340374 167.78515625 200.79296875 C166.88474609 201.33244141 165.98433594 201.87191406 165.05664062 202.42773438 C164.06857422 203.00845703 163.08050781 203.58917969 162.0625 204.1875 C159.94871832 205.45098609 157.83545634 206.71534193 155.72265625 207.98046875 C154.61680176 208.63966309 153.51094727 209.29885742 152.37158203 209.97802734 C146.88380906 213.26910162 141.44348807 216.63636796 136 220 C126.90973549 225.60388229 117.7993926 231.17336785 108.67260742 236.7175293 C101.53620308 241.05613528 94.42157863 245.42929016 87.3125 249.8125 C77.83108493 255.65582275 68.3305758 261.46663704 58.8125 267.25 C58.21668121 267.61243805 57.62086243 267.9748761 57.00698853 268.34829712 C51.04554865 271.97368307 45.08414637 275.58372099 39 279 C38.20442708 277.65364583 37.40885417 276.30729167 36.61328125 274.9609375 C35.83416382 273.64246826 35.83416382 273.64246826 35.03930664 272.29736328 C33.87043669 270.31922482 32.70165674 268.34103317 31.53295898 266.36279297 C28.60214225 261.40210704 25.67026952 256.44205768 22.734375 251.484375 C17.12456946 242.00785071 11.54229965 232.51618288 6 223 C2.01545178 216.15973947 -1.97412005 209.32267754 -5.99951172 202.50634766 C-7.07616215 200.68066676 -8.14817122 198.85224012 -9.21533203 197.02099609 C-11.86144439 192.50242632 -14.5837641 188.0816656 -17.515625 183.7421875 C-23.32294886 175.02003854 -27.64090113 168.46058909 -25.9609375 157.6171875 C-25.81237305 156.90530273 -25.66380859 156.19341797 -25.51074219 155.45996094 C-24.90634354 152.54890896 -24.41028196 149.62673112 -23.9140625 146.6953125 C-23.08874631 141.8897552 -22.2225263 137.09394463 -21.328125 132.30078125 C-20.06945726 125.48900847 -18.96929302 118.66192662 -17.9375 111.8125 C-17.77515869 110.73798584 -17.61281738 109.66347168 -17.44555664 108.55639648 C-17.1217838 106.41166433 -16.79829406 104.26688941 -16.47509766 102.12207031 C-15.71693072 97.13983043 -14.9235714 92.16340203 -14.125 87.1875 C-13.96507568 86.19081299 -13.80515137 85.19412598 -13.64038086 84.16723633 C-11.84556433 73.00898541 -10.03188569 61.85376677 -8.22021484 50.69824219 C-6.56265044 40.4887319 -4.91681099 30.27743921 -3.29296875 20.0625 C-2.22709896 13.36960592 -1.12160948 6.68377285 0 0 Z " fill="#000000" transform="translate(322,176)"/>
<path d="M0 0 C-0.4666856 6.91416452 -1.4308914 13.5901255 -2.77270508 20.390625 C-4.02845546 26.87502767 -4.95799165 33.39175763 -5.82177734 39.93896484 C-6.52424948 45.12085057 -7.40685033 50.2458043 -8.390625 55.38208008 C-9.90950491 63.39588705 -11.27603182 71.43117 -12.59375 79.48046875 C-12.82880468 80.90946463 -13.06395516 82.33844476 -13.29919434 83.76741028 C-13.78773606 86.73773024 -14.27496017 89.70826244 -14.76123047 92.67895508 C-15.37365064 96.41950853 -15.98969441 100.15945475 -16.60668468 103.89925671 C-20.04712811 124.70154571 -20.04712811 124.70154571 -23.06518555 145.56852722 C-23.95897405 152.1556437 -25.31666524 158.56512455 -27 165 C-31.72137183 161.97105838 -36.04765484 158.62701531 -40.375 155.0625 C-41.79684994 153.89970894 -43.21872567 152.73694942 -44.640625 151.57421875 C-45.36314453 150.9817334 -46.08566406 150.38924805 -46.83007812 149.77880859 C-50.25593948 146.97043485 -53.68901826 144.1709788 -57.125 141.375 C-57.78935059 140.83431885 -58.45370117 140.2936377 -59.13818359 139.73657227 C-63.95518833 135.8257776 -68.82124774 131.98223821 -73.71142578 128.16357422 C-78.87359231 124.1229194 -83.95493109 119.98653195 -89.0324707 115.84033203 C-93.37755126 112.29888377 -97.76448158 108.81842374 -102.1875 105.375 C-107.2691406 101.41498277 -112.20795863 97.31787903 -117.10180664 93.12890625 C-121.6106868 89.2870202 -126.24319968 85.62146753 -130.91455078 81.97998047 C-135.34056429 78.52796049 -139.69957129 75.00273873 -144.03515625 71.4375 C-152.60192621 64.39446383 -161.19154678 57.38229871 -169.9375 50.5625 C-176.03189544 45.80874857 -182.00094125 40.91156714 -187.95800781 35.98730469 C-194.47256808 30.60260882 -201.04212199 25.29721902 -207.71484375 20.109375 C-208.36106689 19.60559326 -209.00729004 19.10181152 -209.6730957 18.58276367 C-210.957158 17.58265662 -212.24339961 16.58534029 -213.53198242 15.59106445 C-215.03949785 14.41701638 -216.52238978 13.21147005 -218 12 C-218 11.67 -218 11.34 -218 11 C-217.31476761 10.96463638 -216.62953522 10.92927277 -215.92353821 10.89283752 C-209.40824938 10.55630297 -202.89304497 10.21818164 -196.37792683 9.87835789 C-193.02990746 9.70378163 -189.68185316 9.52995573 -186.33374023 9.35717773 C-182.46850631 9.15761207 -178.60338646 8.95594765 -174.73828125 8.75390625 C-173.55857254 8.6934462 -172.37886383 8.63298615 -171.16340637 8.57069397 C-164.39832515 8.21477858 -157.64860386 7.7665699 -150.89672852 7.21284485 C-146.16485902 6.86515812 -141.42932333 6.75771889 -136.6875 6.625 C-124.14819023 6.21554585 -111.64354345 5.43968932 -99.125 4.625 C-80.18474428 3.39736767 -61.23906416 2.34852365 -42.28249359 1.41313934 C-40.26642727 1.3133134 -38.25042548 1.21226649 -36.23443604 1.11090088 C-32.43249333 0.92072394 -28.63036312 0.73494775 -24.828125 0.55078125 C-23.70810089 0.49468185 -22.58807678 0.43858246 -21.43411255 0.38078308 C-14.28390239 0.04249944 -7.15784416 -0.06375322 0 0 Z " fill="#010101" transform="translate(310,168)"/>
<path d="M0 0 C2.83966608 2.53591802 4.5596943 5.39866872 6.4765625 8.671875 C7.14228271 9.80294678 7.80800293 10.93401855 8.49389648 12.09936523 C9.20426734 13.31624173 9.91463512 14.53312002 10.625 15.75 C11.35893122 16.99908801 12.09339009 18.24786614 12.82836914 19.49633789 C14.26280975 21.93355237 15.69548674 24.37178617 17.12646484 26.81103516 C21.96018925 35.03857075 26.90299343 43.19989999 31.86328125 51.3515625 C33.3257156 53.7550899 34.78796782 56.15872795 36.25 58.5625 C36.61584198 59.16397858 36.98168396 59.76545715 37.35861206 60.38516235 C42.45570675 68.76911731 47.51001945 77.17666608 52.5 85.625 C53.0455957 86.54869385 53.59119141 87.4723877 54.15332031 88.42407227 C60.0670079 98.46754266 59.11353023 105.47814601 57.28515625 116.83984375 C57.10995956 117.96137344 56.93476288 119.08290314 56.7542572 120.23841858 C56.19605585 123.80570534 55.62969296 127.37163286 55.0625 130.9375 C54.50030414 134.50000323 53.9398627 138.06277087 53.38145447 141.62586975 C53.03449838 143.83674659 52.68515364 146.04725036 52.33302307 148.25730896 C51.50381768 153.51242062 50.75438497 158.74981676 50.24534607 164.04627991 C49.98402279 166.12722845 49.55339941 168.11811278 49.0625 170.15625 C47.56906278 176.52824879 46.84423655 183.0165271 46 189.5 C44.08904494 204.17553766 44.08904494 204.17553766 42.4375 211.1171875 C41.81220673 213.80818176 41.40056615 216.51756665 41 219.25 C40.83757812 220.34183594 40.67515625 221.43367187 40.5078125 222.55859375 C40.34023438 223.69425781 40.17265625 224.82992187 40 226 C39.62653781 228.43773609 39.25159423 230.8752458 38.875 233.3125 C38.70742188 234.40175781 38.53984375 235.49101563 38.3671875 236.61328125 C38.24601562 237.40089844 38.12484375 238.18851563 38 239 C33.55435227 234.84464643 30.06337515 230.2326623 26.5 225.3125 C25.89051514 224.4781543 25.28103027 223.64380859 24.65307617 222.78417969 C22.76318726 220.19341936 20.88031938 217.5977123 19 215 C18.42588379 214.20706543 17.85176758 213.41413086 17.26025391 212.59716797 C15.06592015 209.56391814 12.87375035 206.5291307 10.68554688 203.49145508 C7.31332703 198.81049766 3.91824141 194.14743978 0.5 189.5 C-4.17327829 183.14265747 -8.83659075 176.77729759 -13.41455078 170.35083008 C-15.67287036 167.18267158 -17.92660655 164.08835716 -20.4140625 161.09375 C-25.1269576 155.31059585 -25.19538564 151.79213802 -24.46240234 144.50268555 C-23.75375464 139.13469792 -22.73206405 133.86070906 -21.625 128.5625 C-19.68966212 118.96679875 -18.10273062 109.39280646 -16.90087891 99.67797852 C-16.79437012 98.82518311 -16.68786133 97.9723877 -16.578125 97.09375 C-16.48950195 96.34802734 -16.40087891 95.60230469 -16.30957031 94.83398438 C-16 93 -16 93 -15 91 C-14.74809475 89.58533037 -14.5381675 88.16303562 -14.3515625 86.73828125 C-14.17367188 85.42827148 -14.17367188 85.42827148 -13.9921875 84.09179688 C-13.7541237 82.28985651 -13.51708135 80.48778078 -13.28125 78.68554688 C-12.55362251 73.34058112 -11.63882059 68.07403777 -10.5546875 62.7890625 C-9.08272072 55.59120882 -7.90164894 48.36715276 -6.80773926 41.10372925 C-5.24238351 30.72075127 -3.62632835 20.35915129 -1.578125 10.05859375 C-0.94654249 6.71718088 -0.45884208 3.36909042 0 0 Z " fill="#010101" transform="translate(292,367)"/>
<path d="M0 0 C-0.36125977 1.05348633 -0.72251953 2.10697266 -1.09472656 3.19238281 C-2.81502644 8.21094711 -4.5329528 13.23032199 -6.25 18.25 C-6.56645477 19.17502319 -6.88290955 20.10004639 -7.20895386 21.05310059 C-11.55550795 33.76530246 -15.84158625 46.49559317 -20.0625 59.25 C-26.1317405 77.58549497 -32.53890525 95.79946728 -39 114 C-43.70875239 110.16598925 -47.81371029 106.16992028 -51.6875 101.5 C-52.73292528 100.26029215 -53.77850252 99.02071243 -54.82421875 97.78125 C-55.35063965 97.15347656 -55.87706055 96.52570313 -56.41943359 95.87890625 C-58.92471555 92.90073975 -61.4632529 89.9513597 -64 87 C-65.00148996 85.83219234 -66.00279175 84.66422329 -67.00390625 83.49609375 C-67.49906738 82.91843262 -67.99422852 82.34077148 -68.50439453 81.74560547 C-69.99193779 80.00940986 -71.47851508 78.27239171 -72.96484375 76.53515625 C-78.12423811 70.50681126 -83.29930232 64.49276464 -88.5 58.5 C-92.88456351 53.44571009 -97.26302523 48.38630623 -101.625 43.3125 C-102.12193359 42.73628906 -102.61886719 42.16007812 -103.13085938 41.56640625 C-110 33.56352397 -110 33.56352397 -110 31 C-94.53792187 26.27536686 -79.05914644 21.60992543 -63.5625 17 C-62.54116974 16.69596252 -61.51983948 16.39192505 -60.46755981 16.07867432 C-46.40849923 11.89390846 -32.34707263 7.71895822 -18.25244141 3.65527344 C-16.0121984 3.00354872 -13.77719962 2.3360792 -11.54296875 1.6640625 C-10.53472046 1.36459717 -10.53472046 1.36459717 -9.50610352 1.05908203 C-7.80743735 0.55422213 -6.11063231 0.04311048 -4.4140625 -0.46875 C-2 -1 -2 -1 0 0 Z " fill="#010101" transform="translate(543,246)"/>
<path d="M0 0 C21.60739583 9.71300865 21.60739583 9.71300865 31 14 C28.61875047 16.38124953 27.02208785 16.74094783 23.80078125 17.65625 C22.75599609 17.95660156 21.71121094 18.25695312 20.63476562 18.56640625 C18.99024414 19.02853516 18.99024414 19.02853516 17.3125 19.5 C15.69698242 19.96212891 15.69698242 19.96212891 14.04882812 20.43359375 C11.96035889 21.03029924 9.87071035 21.62289583 7.77978516 22.2109375 C6.11944258 22.68223797 4.46173033 23.16322113 2.81005859 23.6640625 C-0.35067129 24.62231955 -2.63183207 25 -6 25 C-5.37768893 22.14522349 -4.75223464 19.29119519 -4.125 16.4375 C-3.95097656 15.63763672 -3.77695312 14.83777344 -3.59765625 14.01367188 C-2.55556397 9.28566059 -1.38268277 4.64008408 0 0 Z " fill="#040404" transform="translate(558,244)"/>
</svg>
